<svg width="50" height="50" viewBox="0 0 50 50" fill="none" xmlns="http://www.w3.org/2000/svg">
<path d="M25 8.49227e-06C20.0555 8.49227e-06 15.222 1.46623 11.1108 4.21327C6.99952 6.9603 3.79521 10.8648 1.90302 15.4329C0.0108321 20.0011 -0.484251 25.0277 0.480379 29.8773C1.44501 34.7268 3.82603 39.1814 7.32234 42.6777C10.8187 46.174 15.2732 48.555 20.1227 49.5196C24.9723 50.4843 29.9989 49.9892 34.5671 48.097C39.1352 46.2048 43.0397 43.0005 45.7867 38.8892C48.5338 34.778 50 29.9445 50 25C50.0027 21.7162 49.3579 18.4641 48.1025 15.4297C46.8471 12.3954 45.0057 9.6383 42.6837 7.3163C40.3617 4.9943 37.6046 3.15291 34.5703 1.89751C31.5359 0.642097 28.2838 -0.00269917 25 8.49227e-06ZM25 44.1176C21.2189 44.1176 17.5227 42.9964 14.3788 40.8957C11.2349 38.7951 8.78457 35.8093 7.33761 32.316C5.89064 28.8227 5.51204 24.9788 6.2497 21.2703C6.98736 17.5619 8.80814 14.1554 11.4818 11.4818C14.1554 8.80814 17.5619 6.98736 21.2703 6.2497C24.9788 5.51204 28.8227 5.89063 32.316 7.3376C35.8093 8.78457 38.7951 11.2349 40.8957 14.3788C42.9964 17.5227 44.1176 21.2189 44.1176 25C44.1227 27.512 43.6316 30.0002 42.6727 32.322C41.7137 34.6437 40.3057 36.7532 38.5295 38.5295C36.7532 40.3057 34.6437 41.7137 32.322 42.6727C30.0002 43.6316 27.512 44.1227 25 44.1176Z" fill="#E64646"/>
<path d="M33.3827 17.3526C33.1171 17.0739 32.7977 16.8521 32.4438 16.7005C32.0899 16.5489 31.7089 16.4707 31.3239 16.4707C30.9389 16.4707 30.5579 16.5489 30.204 16.7005C29.8501 16.8521 29.5307 17.0739 29.2651 17.3526L25.0004 21.6173L20.8827 17.4997C20.3348 16.9627 19.5971 16.6637 18.83 16.6676C18.0628 16.6714 17.3282 16.9779 16.7858 17.5204C16.2433 18.0628 15.9368 18.7974 15.933 19.5646C15.9291 20.3317 16.2281 21.0694 16.7651 21.6173L20.8827 25.735L16.7651 29.8526C16.2281 30.4005 15.9291 31.1382 15.933 31.9053C15.9368 32.6725 16.2433 33.4071 16.7858 33.9496C17.3282 34.492 18.0628 34.7985 18.83 34.8024C19.5971 34.8062 20.3348 34.5072 20.8827 33.9703L25.0004 29.8526L29.118 33.9703C29.6659 34.5072 30.4036 34.8062 31.1707 34.8024C31.9379 34.7985 32.6725 34.492 33.215 33.9496C33.7574 33.4071 34.0639 32.6725 34.0678 31.9053C34.0716 31.1382 33.7726 30.4005 33.2357 29.8526L29.118 25.735L33.2357 21.6173C33.7871 21.0526 34.1078 20.3023 34.135 19.5134C34.1623 18.7246 33.894 17.954 33.3827 17.3526Z" fill="#E64646"/>
</svg>
