<svg width="24" height="16" viewBox="0 0 24 16" fill="none" xmlns="http://www.w3.org/2000/svg">
<g clip-path="url(#clip0_1185_2419)">
<path d="M24 0.199219H0V15.7992H24V0.199219Z" fill="#E4070D"/>
<path d="M24 4.09961H0V15.7996H24V4.09961Z" fill="black"/>
<path d="M24 11.8984H0V15.7984H24V11.8984Z" fill="#24994A"/>
<path d="M12.65 6.56971C12.53 6.44971 12.03 5.95971 11.24 5.91971C10.52 5.88971 9.88 6.24971 9.5 6.74971C9.12 7.24971 9.09 7.77971 9.09 7.95971C9.09 8.15971 9.11 8.46971 9.26 8.80971C9.49 9.34971 9.89 9.63971 10.04 9.72971C10.11 9.77971 10.42 9.95971 10.86 10.0297C11.05 10.0597 11.44 10.1097 11.88 9.94971C12.28 9.79971 12.53 9.54971 12.65 9.40971C12.49 9.51971 12.17 9.69971 11.73 9.72971C11.65 9.72971 10.71 9.77971 10.15 9.00971C9.7 8.38971 9.83 7.70971 9.85 7.59971C9.87 7.51971 10.06 6.66971 10.9 6.31971C11.8 5.94971 12.6 6.51971 12.63 6.54971L12.65 6.56971Z" fill="white"/>
<path d="M13.23 6.57031L13.87 7.45031L14.91 7.12031L14.27 8.00031L14.91 8.89031L13.87 8.55031L13.23 9.43031V8.33031L12.19 7.99031L13.23 7.66031V6.57031Z" fill="white"/>
</g>
<defs>
<clipPath id="clip0_1185_2419">
<rect width="24" height="15.6" fill="white" transform="translate(0 0.199219)"/>
</clipPath>
</defs>
</svg>
