<svg width="142" height="30" viewBox="0 0 142 30" fill="none" xmlns="http://www.w3.org/2000/svg">
<rect x="0.25" y="0.25" width="141.5" height="29.5" rx="7.75" fill="white"/>
<rect x="0.25" y="0.25" width="141.5" height="29.5" rx="7.75" stroke="#F4782B" stroke-width="0.5"/>
<path d="M37.2851 19.88C36.1251 19.88 35.2211 19.616 34.5731 19.088C33.9251 18.56 33.6011 17.824 33.6011 16.88C33.6011 16.512 33.6491 16.124 33.7451 15.716C33.8491 15.3 33.9891 14.888 34.1651 14.48L34.9091 14.708C34.7571 15.02 34.6331 15.348 34.5371 15.692C34.4411 16.028 34.3931 16.348 34.3931 16.652C34.3931 17.332 34.6131 17.86 35.0531 18.236C35.5011 18.612 36.1251 18.8 36.9251 18.8H37.6451C38.6051 18.8 39.3491 18.616 39.8771 18.248C40.4131 17.888 40.6811 17.384 40.6811 16.736V16.604L38.7611 16.172C38.0651 16.012 37.5571 15.78 37.2371 15.476C36.9171 15.172 36.7571 14.772 36.7571 14.276C36.7571 13.892 36.8291 13.52 36.9731 13.16C37.1251 12.8 37.3211 12.48 37.5611 12.2C37.8091 11.912 38.0931 11.684 38.4131 11.516C38.7331 11.34 39.0611 11.252 39.3971 11.252C39.8291 11.252 40.1931 11.348 40.4891 11.54C40.7851 11.724 41.0331 11.988 41.2331 12.332L40.5131 13.028C40.3451 12.772 40.1611 12.584 39.9611 12.464C39.7611 12.344 39.5331 12.284 39.2771 12.284C39.0451 12.284 38.8251 12.332 38.6171 12.428C38.4091 12.524 38.2251 12.656 38.0651 12.824C37.9131 12.992 37.7891 13.188 37.6931 13.412C37.6051 13.636 37.5611 13.872 37.5611 14.12C37.5611 14.368 37.6571 14.572 37.8491 14.732C38.0491 14.892 38.3651 15.024 38.7971 15.128L40.4291 15.512C40.7891 15.6 41.0531 15.744 41.2211 15.944C41.3891 16.136 41.4731 16.4 41.4731 16.736C41.4731 17.232 41.3771 17.672 41.1851 18.056C41.0011 18.448 40.7291 18.78 40.3691 19.052C40.0091 19.324 39.5691 19.528 39.0491 19.664C38.5291 19.808 37.9411 19.88 37.2851 19.88ZM37.9931 22.28C37.8331 22.28 37.7051 22.232 37.6091 22.136C37.5131 22.048 37.4651 21.9 37.4651 21.692C37.4651 21.484 37.5131 21.332 37.6091 21.236C37.7051 21.148 37.8331 21.104 37.9931 21.104H38.1251C38.2851 21.104 38.4131 21.148 38.5091 21.236C38.6051 21.332 38.6531 21.484 38.6531 21.692C38.6531 21.9 38.6051 22.048 38.5091 22.136C38.4131 22.232 38.2851 22.28 38.1251 22.28H37.9931ZM36.4451 22.28C36.2851 22.28 36.1571 22.232 36.0611 22.136C35.9651 22.048 35.9171 21.9 35.9171 21.692C35.9171 21.484 35.9651 21.332 36.0611 21.236C36.1571 21.148 36.2851 21.104 36.4451 21.104H36.5771C36.7371 21.104 36.8651 21.148 36.9611 21.236C37.0571 21.332 37.1051 21.484 37.1051 21.692C37.1051 21.9 37.0571 22.048 36.9611 22.136C36.8651 22.232 36.7371 22.28 36.5771 22.28H36.4451ZM41.1081 18.848H41.5521C41.9921 18.848 42.3521 18.784 42.6321 18.656C42.9121 18.528 43.1321 18.356 43.2921 18.14C43.4521 17.932 43.5641 17.684 43.6281 17.396C43.6921 17.116 43.7241 16.82 43.7241 16.508C43.7241 16.276 43.7121 16.036 43.6881 15.788C43.6641 15.532 43.6321 15.288 43.5921 15.056L43.3401 13.7L44.1801 13.532L44.3361 14.444C44.3841 14.724 44.4201 14.988 44.4441 15.236C44.4761 15.484 44.5001 15.728 44.5161 15.968H45.6561V16.76L45.4161 17H44.5041C44.4721 17.392 44.3961 17.76 44.2761 18.104C44.1641 18.456 43.9921 18.764 43.7601 19.028C43.5361 19.292 43.2401 19.5 42.8721 19.652C42.5121 19.804 42.0721 19.88 41.5521 19.88H41.1081V18.848ZM45.4202 16.208L45.6602 15.968H46.0682C46.4202 15.968 46.7442 15.956 47.0402 15.932C47.3442 15.908 47.6522 15.864 47.9642 15.8C48.2762 15.728 48.6042 15.628 48.9482 15.5C49.3002 15.372 49.6962 15.204 50.1362 14.996L51.2402 14.468V14.42L49.4642 14.024L46.9802 13.412V14.444H46.1402V13.52C46.1402 13.184 46.2322 12.932 46.4162 12.764C46.6082 12.588 46.8482 12.5 47.1362 12.5C47.2242 12.5 47.3282 12.512 47.4482 12.536C47.5762 12.552 47.7722 12.592 48.0362 12.656L50.9642 13.412C51.4042 13.524 51.7722 13.604 52.0682 13.652C52.3642 13.692 52.6202 13.712 52.8362 13.712H53.0282V14.744H52.1162V14.888C52.1162 15.288 52.2042 15.568 52.3802 15.728C52.5562 15.888 52.8282 15.968 53.1962 15.968H53.6162V16.76L53.3762 17C53.0242 17 52.7242 16.968 52.4762 16.904C52.2282 16.84 52.0242 16.736 51.8642 16.592C51.7122 16.44 51.5962 16.248 51.5162 16.016C51.4442 15.784 51.4042 15.5 51.3962 15.164L50.4602 15.728C49.9642 16.024 49.5242 16.26 49.1402 16.436C48.7562 16.604 48.3962 16.732 48.0602 16.82C47.7242 16.9 47.3962 16.952 47.0762 16.976C46.7642 16.992 46.4282 17 46.0682 17H45.4202V16.208ZM53.3772 16.208L53.6172 15.968H53.7972C54.3252 15.968 54.7052 15.904 54.9372 15.776C55.1772 15.64 55.2972 15.384 55.2972 15.008C55.2972 14.864 55.2852 14.68 55.2612 14.456C55.2452 14.232 55.2052 13.936 55.1412 13.568L54.9732 12.572L55.8132 12.44L55.9572 13.436C56.0132 13.828 56.0532 14.148 56.0772 14.396C56.1012 14.644 56.1132 14.848 56.1132 15.008C56.1132 15.68 55.9132 16.18 55.5132 16.508C55.1212 16.836 54.5492 17 53.7972 17H53.3772V16.208ZM55.2012 19.4C55.0412 19.4 54.9132 19.352 54.8172 19.256C54.7212 19.168 54.6732 19.02 54.6732 18.812C54.6732 18.604 54.7212 18.452 54.8172 18.356C54.9132 18.268 55.0412 18.224 55.2012 18.224H55.3332C55.4932 18.224 55.6212 18.268 55.7172 18.356C55.8132 18.452 55.8612 18.604 55.8612 18.812C55.8612 19.02 55.8132 19.168 55.7172 19.256C55.6212 19.352 55.4932 19.4 55.3332 19.4H55.2012ZM63.2923 19.88C62.2443 19.88 61.4283 19.616 60.8443 19.088C60.2603 18.56 59.9683 17.824 59.9683 16.88C59.9683 16.512 60.0163 16.124 60.1123 15.716C60.2163 15.3 60.3563 14.888 60.5323 14.48L61.2763 14.708C61.1243 15.02 61.0003 15.348 60.9043 15.692C60.8083 16.028 60.7603 16.348 60.7603 16.652C60.7603 17.332 60.9523 17.86 61.3363 18.236C61.7203 18.612 62.2523 18.8 62.9323 18.8H63.6523C64.5003 18.8 65.1203 18.628 65.5123 18.284C65.9123 17.948 66.1123 17.416 66.1123 16.688C66.1123 16.56 66.1083 16.432 66.1003 16.304C66.0923 16.176 66.0763 16.036 66.0523 15.884C66.0363 15.724 66.0083 15.548 65.9683 15.356C65.9363 15.164 65.8963 14.948 65.8483 14.708L65.6443 13.712L66.4843 13.544L66.6643 14.54C66.7203 14.852 66.7643 15.124 66.7963 15.356C66.8363 15.58 66.8643 15.784 66.8803 15.968H68.0563V16.76L67.8163 17H66.9163C66.8603 17.992 66.5403 18.72 65.9563 19.184C65.3723 19.648 64.4843 19.88 63.2923 19.88ZM63.4603 13.256C63.3003 13.256 63.1723 13.212 63.0763 13.124C62.9803 13.028 62.9323 12.876 62.9323 12.668C62.9323 12.46 62.9803 12.312 63.0763 12.224C63.1723 12.128 63.3003 12.08 63.4603 12.08H63.5923C63.7523 12.08 63.8803 12.128 63.9763 12.224C64.0723 12.312 64.1203 12.46 64.1203 12.668C64.1203 12.876 64.0723 13.028 63.9763 13.124C63.8803 13.212 63.7523 13.256 63.5923 13.256H63.4603ZM67.8147 16.208L68.0547 15.968H68.4627C68.8147 15.968 69.1387 15.956 69.4347 15.932C69.7387 15.908 70.0467 15.864 70.3587 15.8C70.6707 15.728 70.9987 15.628 71.3427 15.5C71.6947 15.372 72.0907 15.204 72.5307 14.996L73.6347 14.468V14.42L71.8587 14.024L69.3747 13.412V14.444H68.5347V13.52C68.5347 13.184 68.6267 12.932 68.8107 12.764C69.0027 12.588 69.2427 12.5 69.5307 12.5C69.6187 12.5 69.7227 12.512 69.8427 12.536C69.9707 12.552 70.1667 12.592 70.4307 12.656L73.3587 13.412C73.7987 13.524 74.1667 13.604 74.4627 13.652C74.7587 13.692 75.0147 13.712 75.2307 13.712H75.4227V14.744H74.5107V14.888C74.5107 15.288 74.5987 15.568 74.7747 15.728C74.9507 15.888 75.2227 15.968 75.5907 15.968H76.0107V16.76L75.7707 17C75.4187 17 75.1187 16.968 74.8707 16.904C74.6227 16.84 74.4187 16.736 74.2587 16.592C74.1067 16.44 73.9907 16.248 73.9107 16.016C73.8387 15.784 73.7987 15.5 73.7907 15.164L72.8547 15.728C72.3587 16.024 71.9187 16.26 71.5347 16.436C71.1507 16.604 70.7907 16.732 70.4547 16.82C70.1187 16.9 69.7907 16.952 69.4707 16.976C69.1587 16.992 68.8227 17 68.4627 17H67.8147V16.208ZM75.7717 16.208L76.0117 15.968H76.4317C76.5837 15.968 76.7157 15.956 76.8277 15.932C76.9477 15.9 77.0557 15.848 77.1517 15.776C77.2477 15.704 77.3357 15.608 77.4157 15.488C77.5037 15.368 77.5957 15.212 77.6917 15.02L78.2077 14.012L78.8917 14.36L78.2557 15.56L78.4237 15.668C78.6797 15.836 78.9277 15.952 79.1677 16.016C79.4157 16.08 79.6557 16.112 79.8877 16.112C80.2637 16.112 80.5397 16.024 80.7157 15.848C80.8997 15.672 80.9917 15.372 80.9917 14.948V14.012H81.8317V14.948C81.8317 15.38 81.8917 15.684 82.0117 15.86C82.1317 16.028 82.3397 16.112 82.6357 16.112H82.8757C83.3877 16.112 83.6437 15.856 83.6437 15.344C83.6437 15.216 83.6357 15.052 83.6197 14.852C83.6117 14.644 83.5877 14.424 83.5477 14.192L83.4517 13.532L84.2797 13.424L84.3637 14.06C84.3957 14.308 84.4197 14.544 84.4357 14.768C84.4517 14.992 84.4597 15.184 84.4597 15.344C84.4597 15.896 84.3117 16.336 84.0157 16.664C83.7197 16.984 83.2997 17.144 82.7557 17.144C81.8117 17.144 81.2597 16.744 81.0997 15.944H81.0397C80.9597 16.328 80.8037 16.624 80.5717 16.832C80.3477 17.04 80.0517 17.144 79.6837 17.144C79.2037 17.144 78.6717 16.956 78.0877 16.58L77.7157 16.34C77.4837 16.596 77.2197 16.772 76.9237 16.868C76.6277 16.956 76.2437 17 75.7717 17V16.208ZM82.1197 12.572C81.9597 12.572 81.8317 12.528 81.7357 12.44C81.6397 12.344 81.5917 12.192 81.5917 11.984C81.5917 11.776 81.6397 11.628 81.7357 11.54C81.8317 11.444 81.9597 11.396 82.1197 11.396H82.2517C82.4117 11.396 82.5397 11.444 82.6357 11.54C82.7317 11.628 82.7797 11.776 82.7797 11.984C82.7797 12.192 82.7317 12.344 82.6357 12.44C82.5397 12.528 82.4117 12.572 82.2517 12.572H82.1197ZM80.5717 12.572C80.4117 12.572 80.2837 12.528 80.1877 12.44C80.0917 12.344 80.0437 12.192 80.0437 11.984C80.0437 11.776 80.0917 11.628 80.1877 11.54C80.2837 11.444 80.4117 11.396 80.5717 11.396H80.7037C80.8637 11.396 80.9917 11.444 81.0877 11.54C81.1837 11.628 81.2317 11.776 81.2317 11.984C81.2317 12.192 81.1837 12.344 81.0877 12.44C80.9917 12.528 80.8637 12.572 80.7037 12.572H80.5717ZM81.3397 11.12C81.1877 11.12 81.0637 11.076 80.9677 10.988C80.8797 10.892 80.8357 10.748 80.8357 10.556C80.8357 10.364 80.8797 10.224 80.9677 10.136C81.0637 10.04 81.1877 9.992 81.3397 9.992H81.4837C81.6357 9.992 81.7557 10.04 81.8437 10.136C81.9397 10.224 81.9877 10.364 81.9877 10.556C81.9877 10.748 81.9397 10.892 81.8437 10.988C81.7557 11.076 81.6357 11.12 81.4837 11.12H81.3397Z" fill="#F4782B"/>
<path d="M106.333 13.9327V9.66602C106.333 9.4892 106.263 9.31964 106.138 9.19461C106.013 9.06959 105.843 8.99935 105.667 8.99935H102.333V7.66602H99.6666V8.99935H96.3333C96.1565 8.99935 95.9869 9.06959 95.8619 9.19461C95.7369 9.31964 95.6666 9.4892 95.6666 9.66602V13.9327L94.9426 14.15C94.7786 14.1994 94.6398 14.31 94.5551 14.459C94.4705 14.608 94.4464 14.7838 94.488 14.95L95.4986 18.9953C96.0439 19.0233 96.5877 18.9167 97.082 18.6848C97.5764 18.453 98.0061 18.1031 98.3333 17.666C98.6435 18.0803 99.046 18.4165 99.509 18.648C99.9719 18.8795 100.482 18.9998 101 18.9993C101.518 18.9998 102.028 18.8795 102.491 18.648C102.954 18.4165 103.356 18.0803 103.667 17.666C103.994 18.1031 104.424 18.453 104.918 18.6848C105.412 18.9167 105.956 19.0233 106.501 18.9953L107.512 14.95C107.553 14.7838 107.529 14.608 107.445 14.459C107.36 14.31 107.221 14.1994 107.057 14.15L106.333 13.9327ZM105 13.5327L101 12.3327L99.164 12.8833L97.958 13.2453L97 13.5327V10.3327H105V13.5327ZM106.333 20.3327C105.349 20.334 104.399 19.9712 103.667 19.314C102.934 19.9712 101.984 20.334 101 20.3327C100.016 20.334 99.0659 19.9712 98.3333 19.314C97.6007 19.9712 96.6508 20.334 95.6666 20.3327H94.3333V21.666H95.6666C96.6029 21.6675 97.5229 21.4214 98.3333 20.9527C99.1437 21.4214 100.064 21.6675 101 21.666C101.936 21.6675 102.856 21.4214 103.667 20.9527C104.477 21.4214 105.397 21.6675 106.333 21.666H107.667V20.3327H106.333Z" fill="#F4782B"/>
</svg>
