<svg width="144" height="21" viewBox="0 0 144 21" fill="none" xmlns="http://www.w3.org/2000/svg">
<rect y="0.230469" width="144" height="20" rx="6" fill="#BEE3F8"/>
<path d="M12.859 13.2305C12.313 13.2305 11.92 13.1195 11.68 12.8975C11.446 12.6695 11.329 12.3185 11.329 11.8445V11.7365H11.284C11.194 12.0725 11.053 12.3155 10.861 12.4655C10.669 12.6095 10.417 12.6815 10.105 12.6815C9.69098 12.6815 9.37298 12.5705 9.15098 12.3485C8.92898 12.1265 8.81798 11.8145 8.81798 11.4125C8.81798 11.2085 8.84798 11.0225 8.90798 10.8545C8.96798 10.6805 9.06098 10.5185 9.18698 10.3685C9.31298 10.2185 9.46898 10.0775 9.65498 9.94547C9.84698 9.80747 10.072 9.66947 10.33 9.53147L11.284 9.02747V8.55047H12.103V11.6465C12.103 11.8625 12.157 12.0125 12.265 12.0965C12.373 12.1745 12.544 12.2135 12.778 12.2135H13.075V13.0145L12.859 13.2305ZM10.303 11.6645C10.663 11.6645 10.915 11.6195 11.059 11.5295C11.209 11.4395 11.284 11.2805 11.284 11.0525V9.83747L10.474 10.2515C10.15 10.4195 9.91598 10.5695 9.77198 10.7015C9.62798 10.8275 9.55598 10.9835 9.55598 11.1695C9.55598 11.3435 9.60998 11.4695 9.71798 11.5475C9.83198 11.6255 10.027 11.6645 10.303 11.6645ZM11.644 7.82147C11.506 7.82147 11.395 7.77947 11.311 7.69547C11.233 7.61147 11.194 7.48247 11.194 7.30847C11.194 7.12847 11.233 6.99947 11.311 6.92147C11.395 6.83747 11.506 6.79547 11.644 6.79547H11.779C11.917 6.79547 12.028 6.83747 12.112 6.92147C12.196 6.99947 12.238 7.12847 12.238 7.30847C12.238 7.48247 12.196 7.61147 12.112 7.69547C12.028 7.77947 11.917 7.82147 11.779 7.82147H11.644ZM10.375 7.82147C10.237 7.82147 10.126 7.77947 10.042 7.69547C9.96398 7.61147 9.92498 7.48247 9.92498 7.30847C9.92498 7.12847 9.96398 6.99947 10.042 6.92147C10.126 6.83747 10.237 6.79547 10.375 6.79547H10.51C10.648 6.79547 10.759 6.83747 10.843 6.92147C10.927 6.99947 10.969 7.12847 10.969 7.30847C10.969 7.48247 10.927 7.61147 10.843 7.69547C10.759 7.77947 10.648 7.82147 10.51 7.82147H10.375ZM12.8592 12.4295L13.0752 12.2135H14.0292V12.1685C13.8552 12.0125 13.7112 11.8145 13.5972 11.5745C13.4892 11.3345 13.4352 11.0735 13.4352 10.7915C13.4352 10.5155 13.4832 10.2575 13.5792 10.0175C13.6752 9.77747 13.8042 9.57347 13.9662 9.40547C14.1342 9.23147 14.3292 9.09647 14.5512 9.00047C14.7792 8.89847 15.0252 8.84747 15.2892 8.84747C15.6852 8.84747 16.0212 8.93147 16.2972 9.09947C16.5792 9.26147 16.8102 9.48947 16.9902 9.78347L16.3242 10.4495C16.1802 10.2455 16.0182 10.0985 15.8382 10.0085C15.6642 9.91247 15.4602 9.86447 15.2262 9.86447C14.8902 9.86447 14.6292 9.94847 14.4432 10.1165C14.2632 10.2785 14.1732 10.5035 14.1732 10.7915C14.1732 11.1155 14.3052 11.3795 14.5692 11.5835C14.8392 11.7815 15.1902 11.8805 15.6222 11.8805C15.9162 11.8805 16.2132 11.8385 16.5132 11.7545L17.3052 11.5475L17.5482 12.4745L16.3062 12.8255C16.0302 12.9095 15.7692 12.9785 15.5232 13.0325C15.2832 13.0805 15.0312 13.1195 14.7672 13.1495C14.5092 13.1795 14.2272 13.2005 13.9212 13.2125C13.6152 13.2245 13.2612 13.2305 12.8592 13.2305V12.4295ZM20.0104 13.2305C19.4224 13.2305 18.9994 13.1105 18.7414 12.8705C18.4834 12.6245 18.3544 12.2165 18.3544 11.6465V6.57047H19.1914V11.5655C19.1914 11.8175 19.2484 11.9885 19.3624 12.0785C19.4824 12.1685 19.6774 12.2135 19.9474 12.2135H20.2444V13.0145L20.0194 13.2305H20.0104ZM20.0311 12.4295L20.2471 12.2135H20.4271C20.5531 12.2135 20.6641 12.2045 20.7601 12.1865C20.8561 12.1685 20.9401 12.1355 21.0121 12.0875C21.0841 12.0395 21.1501 11.9765 21.2101 11.8985C21.2701 11.8205 21.3301 11.7215 21.3901 11.6015L21.7591 10.8545L22.4341 11.1965L22.0201 11.9975L22.0831 12.0335C22.2631 12.1355 22.4371 12.2105 22.6051 12.2585C22.7731 12.3065 22.9441 12.3305 23.1181 12.3305C23.3881 12.3305 23.5861 12.2705 23.7121 12.1505C23.8381 12.0245 23.9011 11.8085 23.9011 11.5025V10.8545H24.6841V11.5025C24.6841 11.7965 24.7291 12.0065 24.8191 12.1325C24.9091 12.2525 25.0501 12.3125 25.2421 12.3125H25.3771C25.7191 12.3125 25.8901 12.1175 25.8901 11.7275C25.8901 11.5355 25.8631 11.2595 25.8091 10.8995L25.7281 10.4225L26.5021 10.3055L26.5741 10.7735C26.5981 10.9535 26.6161 11.1245 26.6281 11.2865C26.6401 11.4485 26.6461 11.5955 26.6461 11.7275C26.6461 12.2555 26.5321 12.6575 26.3041 12.9335C26.0821 13.2035 25.7491 13.3385 25.3051 13.3385C24.9211 13.3385 24.6241 13.2515 24.4141 13.0775C24.2041 12.9035 24.0661 12.6395 24.0001 12.2855H23.9461C23.8441 12.9875 23.5111 13.3385 22.9471 13.3385C22.7731 13.3385 22.5931 13.3055 22.4071 13.2395C22.2271 13.1735 22.0111 13.0655 21.7591 12.9155L21.5161 12.7715C21.3421 12.9575 21.1381 13.0805 20.9041 13.1405C20.6761 13.2005 20.3851 13.2305 20.0311 13.2305V12.4295ZM33.993 13.2305H29.727V12.2585L31.734 10.4675C32.052 10.1795 32.295 9.90647 32.463 9.64847C32.637 9.38447 32.724 9.10847 32.724 8.82047V8.70347C32.724 8.39747 32.631 8.15747 32.445 7.98347C32.265 7.80947 32.019 7.72247 31.707 7.72247C31.533 7.72247 31.38 7.74947 31.248 7.80347C31.122 7.85147 31.011 7.92047 30.915 8.01047C30.819 8.10047 30.738 8.20547 30.672 8.32547C30.612 8.44547 30.564 8.57447 30.528 8.71247L29.637 8.37047C29.703 8.17247 29.793 7.98347 29.907 7.80347C30.021 7.61747 30.165 7.45247 30.339 7.30847C30.513 7.16447 30.717 7.05047 30.951 6.96647C31.191 6.88247 31.47 6.84047 31.788 6.84047C32.106 6.84047 32.391 6.88847 32.643 6.98447C32.895 7.07447 33.105 7.20347 33.273 7.37147C33.447 7.53347 33.579 7.72847 33.669 7.95647C33.759 8.18447 33.804 8.43347 33.804 8.70347C33.804 8.95547 33.765 9.18947 33.687 9.40547C33.609 9.62147 33.501 9.82547 33.363 10.0175C33.225 10.2095 33.063 10.3925 32.877 10.5665C32.697 10.7405 32.505 10.9175 32.301 11.0975L30.825 12.3665H33.993V13.2305ZM37.7515 13.2305V12.0065H34.8355V11.1335L37.3825 6.94847H38.7145V11.2055H39.5695V12.0065H38.7145V13.2305H37.7515ZM35.6995 11.2055H37.7515V7.87547H37.6885L35.6995 11.2055ZM41.5039 14.3735H41.8459C42.1519 14.3735 42.4069 14.3345 42.6109 14.2565C42.8149 14.1785 42.9799 14.0675 43.1059 13.9235C43.2319 13.7855 43.3219 13.6175 43.3759 13.4195C43.4299 13.2215 43.4569 12.9995 43.4569 12.7535C43.4569 12.5915 43.4479 12.4235 43.4299 12.2495C43.4119 12.0755 43.3879 11.9015 43.3579 11.7275L43.1689 10.6385L43.9429 10.4945L44.0689 11.2505C44.1709 11.8325 44.2219 12.3305 44.2219 12.7445C44.2219 13.1165 44.1769 13.4615 44.0869 13.7795C44.0029 14.1035 43.8649 14.3855 43.6729 14.6255C43.4809 14.8655 43.2349 15.0515 42.9349 15.1835C42.6349 15.3215 42.2749 15.3905 41.8549 15.3905H41.5039V14.3735ZM43.3489 9.57647C43.2109 9.57647 43.0999 9.53447 43.0159 9.45047C42.9379 9.36647 42.8989 9.23747 42.8989 9.06347C42.8989 8.88347 42.9379 8.75447 43.0159 8.67647C43.0999 8.59247 43.2109 8.55047 43.3489 8.55047H43.4839C43.6219 8.55047 43.7329 8.59247 43.8169 8.67647C43.9009 8.75447 43.9429 8.88347 43.9429 9.06347C43.9429 9.23747 43.9009 9.36647 43.8169 9.45047C43.7329 9.53447 43.6219 9.57647 43.4839 9.57647H43.3489ZM44.8544 14.3735H45.4574C46.2074 14.3735 46.7594 14.2235 47.1134 13.9235C47.4734 13.6235 47.6534 13.2185 47.6534 12.7085V12.4925H47.6084C47.4224 12.9905 47.0384 13.2395 46.4564 13.2395C45.9704 13.2395 45.5954 13.1075 45.3314 12.8435C45.0674 12.5735 44.9354 12.1955 44.9354 11.7095C44.9354 11.4215 44.9774 11.1515 45.0614 10.8995C45.1514 10.6475 45.2714 10.4315 45.4214 10.2515C45.5774 10.0655 45.7604 9.91847 45.9704 9.81047C46.1804 9.70247 46.4084 9.64847 46.6544 9.64847C47.2004 9.64847 47.6264 9.87947 47.9324 10.3415C48.2444 10.7975 48.4004 11.4365 48.4004 12.2585C48.4004 13.2425 48.1544 14.0105 47.6624 14.5625C47.1764 15.1145 46.4534 15.3905 45.4934 15.3905H44.8544V14.3735ZM46.6814 12.2135C46.9334 12.2135 47.1344 12.1955 47.2844 12.1595C47.4404 12.1235 47.5634 12.0665 47.6534 11.9885C47.6414 11.5925 47.5364 11.2745 47.3384 11.0345C47.1464 10.7945 46.8914 10.6745 46.5734 10.6745C46.2974 10.6745 46.0784 10.7585 45.9164 10.9265C45.7544 11.0945 45.6734 11.3135 45.6734 11.5835C45.6734 11.8055 45.7424 11.9675 45.8804 12.0695C46.0244 12.1655 46.2314 12.2135 46.5014 12.2135H46.6814ZM51.0446 13.2305C50.4566 13.2305 50.0336 13.1105 49.7756 12.8705C49.5176 12.6245 49.3886 12.2165 49.3886 11.6465V6.57047H50.2256V11.5655C50.2256 11.8175 50.2826 11.9885 50.3966 12.0785C50.5166 12.1685 50.7116 12.2135 50.9816 12.2135H51.2786V13.0145L51.0536 13.2305H51.0446ZM51.0652 12.4295L51.2812 12.2135H51.7223C52.0163 12.2135 52.2863 12.2075 52.5323 12.1955C52.7783 12.1835 53.0183 12.1565 53.2523 12.1145C53.4863 12.0665 53.7263 12.0005 53.9723 11.9165C54.2183 11.8265 54.4913 11.7095 54.7913 11.5655L55.4123 11.2685V11.2235L54.0263 10.9265L52.3793 10.5215V11.2505H51.5782V10.5575C51.5782 10.2335 51.6563 9.99347 51.8123 9.83747C51.9743 9.67547 52.1993 9.59447 52.4873 9.59447C52.5653 9.59447 52.6553 9.60347 52.7573 9.62147C52.8653 9.63947 53.0363 9.67847 53.2703 9.73847L55.2683 10.2515C55.8443 10.4015 56.3393 10.4765 56.7533 10.4765H56.9153V11.4935H56.2583V11.5385C56.2583 11.7905 56.3153 11.9675 56.4293 12.0695C56.5433 12.1655 56.7293 12.2135 56.9873 12.2135H57.2843V13.0145L57.0683 13.2305C56.5703 13.2305 56.2013 13.1285 55.9613 12.9245C55.7273 12.7145 55.5953 12.3755 55.5653 11.9075L55.1063 12.1955C54.7223 12.4355 54.3803 12.6245 54.0803 12.7625C53.7863 12.9005 53.5103 13.0055 53.2523 13.0775C52.9943 13.1435 52.7423 13.1855 52.4963 13.2035C52.2563 13.2215 51.9983 13.2305 51.7223 13.2305H51.0652V12.4295ZM54.0353 15.0935C53.8973 15.0935 53.7863 15.0515 53.7023 14.9675C53.6243 14.8835 53.5853 14.7545 53.5853 14.5805C53.5853 14.4005 53.6243 14.2685 53.7023 14.1845C53.7863 14.1065 53.8973 14.0675 54.0353 14.0675H54.1703C54.3083 14.0675 54.4193 14.1065 54.5033 14.1845C54.5873 14.2685 54.6293 14.4005 54.6293 14.5805C54.6293 14.7545 54.5873 14.8835 54.5033 14.9675C54.4193 15.0515 54.3083 15.0935 54.1703 15.0935H54.0353ZM57.0682 12.4295L57.2842 12.2135H57.5812C58.0792 12.2135 58.3282 11.9765 58.3282 11.5025V10.1345H59.1112V11.5025C59.1112 11.9765 59.3452 12.2135 59.8132 12.2135H60.1552V13.0145L59.9302 13.2305C59.4862 13.2305 59.1412 13.1495 58.8952 12.9875C58.6552 12.8195 58.4962 12.5585 58.4182 12.2045H58.3642C58.2922 12.5765 58.1572 12.8405 57.9592 12.9965C57.7672 13.1525 57.4702 13.2305 57.0682 13.2305V12.4295ZM59.2642 9.21647C59.1262 9.21647 59.0152 9.17447 58.9312 9.09047C58.8532 9.00647 58.8142 8.87747 58.8142 8.70347C58.8142 8.52347 58.8532 8.39447 58.9312 8.31647C59.0152 8.23247 59.1262 8.19047 59.2642 8.19047H59.3992C59.5372 8.19047 59.6482 8.23247 59.7322 8.31647C59.8162 8.39447 59.8582 8.52347 59.8582 8.70347C59.8582 8.87747 59.8162 9.00647 59.7322 9.09047C59.6482 9.17447 59.5372 9.21647 59.3992 9.21647H59.2642ZM57.9952 9.21647C57.8572 9.21647 57.7462 9.17447 57.6622 9.09047C57.5842 9.00647 57.5452 8.87747 57.5452 8.70347C57.5452 8.52347 57.5842 8.39447 57.6622 8.31647C57.7462 8.23247 57.8572 8.19047 57.9952 8.19047H58.1302C58.2682 8.19047 58.3792 8.23247 58.4632 8.31647C58.5472 8.39447 58.5892 8.52347 58.5892 8.70347C58.5892 8.87747 58.5472 9.00647 58.4632 9.09047C58.3792 9.17447 58.2682 9.21647 58.1302 9.21647H57.9952ZM59.9422 12.4295L60.1582 12.2135H60.3472C60.7552 12.2135 61.0432 12.1685 61.2112 12.0785C61.3792 11.9825 61.4632 11.8115 61.4632 11.5655C61.4632 11.4635 61.4542 11.3345 61.4362 11.1785C61.4242 11.0225 61.3972 10.8155 61.3552 10.5575L61.2112 9.77447L61.9942 9.64847L62.1112 10.4315C62.1832 10.9115 62.2192 11.2895 62.2192 11.5655C62.2192 12.1295 62.0662 12.5495 61.7602 12.8255C61.4542 13.0955 60.9832 13.2305 60.3472 13.2305H59.9422V12.4295ZM62.0392 8.73047C61.9012 8.73047 61.7902 8.68847 61.7062 8.60447C61.6282 8.52047 61.5892 8.39147 61.5892 8.21747C61.5892 8.03747 61.6282 7.90847 61.7062 7.83047C61.7902 7.74647 61.9012 7.70447 62.0392 7.70447H62.1742C62.3122 7.70447 62.4232 7.74647 62.5072 7.83047C62.5912 7.90847 62.6332 8.03747 62.6332 8.21747C62.6332 8.39147 62.5912 8.52047 62.5072 8.60447C62.4232 8.68847 62.3122 8.73047 62.1742 8.73047H62.0392ZM60.7702 8.73047C60.6322 8.73047 60.5212 8.68847 60.4372 8.60447C60.3592 8.52047 60.3202 8.39147 60.3202 8.21747C60.3202 8.03747 60.3592 7.90847 60.4372 7.83047C60.5212 7.74647 60.6322 7.70447 60.7702 7.70447H60.9052C61.0432 7.70447 61.1542 7.74647 61.2382 7.83047C61.3222 7.90847 61.3642 8.03747 61.3642 8.21747C61.3642 8.39147 61.3222 8.52047 61.2382 8.60447C61.1542 8.68847 61.0432 8.73047 60.9052 8.73047H60.7702ZM65.1884 12.2315L66.8264 10.6925L64.6034 8.35247L65.2154 7.74047L67.4564 10.0985C67.5524 10.0085 67.6304 9.92147 67.6904 9.83747C67.7564 9.74747 67.8074 9.65747 67.8434 9.56747C67.8854 9.47147 67.9124 9.36647 67.9244 9.25247C67.9424 9.13847 67.9514 9.00647 67.9514 8.85647V6.57047H68.7974V8.85647C68.7974 9.05447 68.7824 9.22847 68.7524 9.37847C68.7284 9.52847 68.6834 9.67247 68.6174 9.81047C68.5514 9.94247 68.4644 10.0745 68.3564 10.2065C68.2544 10.3325 68.1224 10.4705 67.9604 10.6205L68.4104 11.0975C68.6384 11.3315 68.7944 11.5355 68.8784 11.7095C68.9684 11.8775 69.0134 12.0575 69.0134 12.2495C69.0134 12.3815 68.9894 12.5075 68.9414 12.6275C68.8934 12.7475 68.8244 12.8525 68.7344 12.9425C68.6504 13.0325 68.5454 13.1045 68.4194 13.1585C68.2934 13.2065 68.1494 13.2305 67.9874 13.2305H65.1884V12.2315ZM67.3124 11.2055L66.2324 12.1775L66.2414 12.2135H68.2844L67.3124 11.2055ZM74.3037 15.3905C73.5177 15.3905 72.9117 15.1865 72.4857 14.7785C72.0657 14.3705 71.8557 13.7945 71.8557 13.0505C71.8557 12.7805 71.8917 12.4835 71.9637 12.1595C72.0417 11.8355 72.1467 11.5175 72.2787 11.2055L72.9627 11.4125C72.8487 11.6645 72.7557 11.9255 72.6837 12.1955C72.6117 12.4655 72.5757 12.7085 72.5757 12.9245C72.5757 13.3625 72.7017 13.7015 72.9537 13.9415C73.2057 14.1815 73.5537 14.3015 73.9977 14.3015H74.6187C74.8767 14.3015 75.0957 14.2715 75.2757 14.2115C75.4557 14.1515 75.6027 14.0525 75.7167 13.9145C75.8307 13.7765 75.9117 13.5935 75.9597 13.3655C76.0077 13.1435 76.0317 12.8705 76.0317 12.5465V6.57047H76.8777V12.2135H77.9307V13.0145L77.7147 13.2305H76.8417C76.7517 13.9745 76.4997 14.5205 76.0857 14.8685C75.6717 15.2165 75.0777 15.3905 74.3037 15.3905ZM77.7137 12.4295L77.9297 12.2135H78.1187C78.5267 12.2135 78.8147 12.1685 78.9827 12.0785C79.1507 11.9825 79.2347 11.8115 79.2347 11.5655C79.2347 11.4635 79.2257 11.3345 79.2077 11.1785C79.1957 11.0225 79.1687 10.8155 79.1267 10.5575L78.9827 9.77447L79.7657 9.64847L79.8827 10.4315C79.9547 10.9115 79.9907 11.2895 79.9907 11.5655C79.9907 12.1295 79.8377 12.5495 79.5317 12.8255C79.2257 13.0955 78.7547 13.2305 78.1187 13.2305H77.7137V12.4295ZM79.8017 15.0935C79.6637 15.0935 79.5527 15.0515 79.4687 14.9675C79.3907 14.8835 79.3517 14.7545 79.3517 14.5805C79.3517 14.4005 79.3907 14.2685 79.4687 14.1845C79.5527 14.1065 79.6637 14.0675 79.8017 14.0675H79.9367C80.0747 14.0675 80.1857 14.1065 80.2697 14.1845C80.3537 14.2685 80.3957 14.4005 80.3957 14.5805C80.3957 14.7545 80.3537 14.8835 80.2697 14.9675C80.1857 15.0515 80.0747 15.0935 79.9367 15.0935H79.8017ZM78.5327 15.0935C78.3947 15.0935 78.2837 15.0515 78.1997 14.9675C78.1217 14.8835 78.0827 14.7545 78.0827 14.5805C78.0827 14.4005 78.1217 14.2685 78.1997 14.1845C78.2837 14.1065 78.3947 14.0675 78.5327 14.0675H78.6677C78.8057 14.0675 78.9167 14.1065 79.0007 14.1845C79.0847 14.2685 79.1267 14.4005 79.1267 14.5805C79.1267 14.7545 79.0847 14.8835 79.0007 14.9675C78.9167 15.0515 78.8057 15.0935 78.6677 15.0935H78.5327ZM80.8368 14.3735H81.3588C81.9888 14.3735 82.4808 14.2715 82.8348 14.0675C83.1888 13.8695 83.4228 13.5905 83.5368 13.2305H82.4568C81.9708 13.2305 81.5928 13.0985 81.3228 12.8345C81.0588 12.5705 80.9268 12.1955 80.9268 11.7095C80.9268 11.4215 80.9688 11.1515 81.0528 10.8995C81.1428 10.6475 81.2628 10.4315 81.4128 10.2515C81.5688 10.0655 81.7518 9.91847 81.9618 9.81047C82.1718 9.70247 82.4028 9.64847 82.6548 9.64847C83.1828 9.64847 83.5938 9.87347 83.8878 10.3235C84.1878 10.7735 84.3438 11.4035 84.3558 12.2135H84.7788V13.0145L84.5628 13.2305H84.2568C84.1068 13.9205 83.7918 14.4515 83.3118 14.8235C82.8378 15.2015 82.1988 15.3905 81.3948 15.3905H80.8368V14.3735ZM81.6738 11.5835C81.6738 11.8055 81.7428 11.9675 81.8808 12.0695C82.0188 12.1655 82.2228 12.2135 82.4928 12.2135H83.6088V12.0425C83.6088 11.6285 83.5128 11.2985 83.3208 11.0525C83.1288 10.8005 82.8798 10.6745 82.5738 10.6745C82.2978 10.6745 82.0788 10.7585 81.9168 10.9265C81.7548 11.0945 81.6738 11.3135 81.6738 11.5835ZM84.5604 12.4295L84.7764 12.2135H85.2174C85.5114 12.2135 85.7814 12.2075 86.0274 12.1955C86.2734 12.1835 86.5134 12.1565 86.7474 12.1145C86.9814 12.0665 87.2214 12.0005 87.4674 11.9165C87.7134 11.8265 87.9864 11.7095 88.2864 11.5655L88.9074 11.2685V11.2235L87.5214 10.9265L85.8744 10.5215V11.2505H85.0734V10.5575C85.0734 10.2335 85.1514 9.99347 85.3074 9.83747C85.4694 9.67547 85.6944 9.59447 85.9824 9.59447C86.0604 9.59447 86.1504 9.60347 86.2524 9.62147C86.3604 9.63947 86.5314 9.67847 86.7654 9.73847L88.7634 10.2515C89.3394 10.4015 89.8344 10.4765 90.2484 10.4765H90.4104V11.4935H89.7534V11.5385C89.7534 11.7905 89.8104 11.9675 89.9244 12.0695C90.0384 12.1655 90.2244 12.2135 90.4824 12.2135H90.7794V13.0145L90.5634 13.2305C90.0654 13.2305 89.6964 13.1285 89.4564 12.9245C89.2224 12.7145 89.0904 12.3755 89.0604 11.9075L88.6014 12.1955C88.2174 12.4355 87.8754 12.6245 87.5754 12.7625C87.2814 12.9005 87.0054 13.0055 86.7474 13.0775C86.4894 13.1435 86.2374 13.1855 85.9914 13.2035C85.7514 13.2215 85.4934 13.2305 85.2174 13.2305H84.5604V12.4295ZM90.5633 12.4295L90.7793 12.2135H91.0763C91.5743 12.2135 91.8233 11.9765 91.8233 11.5025V10.1345H92.6063V11.5025C92.6063 11.9765 92.8403 12.2135 93.3083 12.2135H93.6503V13.0145L93.4253 13.2305C92.9813 13.2305 92.6363 13.1495 92.3903 12.9875C92.1503 12.8195 91.9913 12.5585 91.9133 12.2045H91.8593C91.7873 12.5765 91.6523 12.8405 91.4543 12.9965C91.2623 13.1525 90.9653 13.2305 90.5633 13.2305V12.4295ZM92.7593 9.21647C92.6213 9.21647 92.5103 9.17447 92.4263 9.09047C92.3483 9.00647 92.3093 8.87747 92.3093 8.70347C92.3093 8.52347 92.3483 8.39447 92.4263 8.31647C92.5103 8.23247 92.6213 8.19047 92.7593 8.19047H92.8943C93.0323 8.19047 93.1433 8.23247 93.2273 8.31647C93.3113 8.39447 93.3533 8.52347 93.3533 8.70347C93.3533 8.87747 93.3113 9.00647 93.2273 9.09047C93.1433 9.17447 93.0323 9.21647 92.8943 9.21647H92.7593ZM91.4903 9.21647C91.3523 9.21647 91.2413 9.17447 91.1573 9.09047C91.0793 9.00647 91.0403 8.87747 91.0403 8.70347C91.0403 8.52347 91.0793 8.39447 91.1573 8.31647C91.2413 8.23247 91.3523 8.19047 91.4903 8.19047H91.6253C91.7633 8.19047 91.8743 8.23247 91.9583 8.31647C92.0423 8.39447 92.0843 8.52347 92.0843 8.70347C92.0843 8.87747 92.0423 9.00647 91.9583 9.09047C91.8743 9.17447 91.7633 9.21647 91.6253 9.21647H91.4903ZM93.4373 12.4295L93.6533 12.2135H93.9683C94.2323 12.2135 94.4153 12.1565 94.5173 12.0425C94.6253 11.9285 94.6793 11.7485 94.6793 11.5025V6.57047H95.5253V11.5025C95.5253 12.0965 95.4053 12.5345 95.1653 12.8165C94.9253 13.0925 94.5263 13.2305 93.9683 13.2305H93.4373V12.4295ZM96.7704 6.57047H97.6074V13.2305H96.7704V6.57047ZM102.402 13.3205C101.85 13.3205 101.421 13.1705 101.115 12.8705C100.815 12.5645 100.665 12.1655 100.665 11.6735C100.665 11.0075 101.001 10.3295 101.673 9.63947L101.925 9.36947H102.951L103.176 9.58547C103.524 9.92747 103.77 10.2545 103.914 10.5665C104.064 10.8725 104.139 11.1965 104.139 11.5385C104.139 11.8085 104.1 12.0545 104.022 12.2765C103.944 12.4925 103.83 12.6785 103.68 12.8345C103.53 12.9905 103.347 13.1105 103.131 13.1945C102.921 13.2785 102.678 13.3205 102.402 13.3205ZM102.492 12.3035C102.762 12.3035 102.978 12.2375 103.14 12.1055C103.308 11.9675 103.392 11.7935 103.392 11.5835C103.392 11.4395 103.341 11.2895 103.239 11.1335C103.143 10.9715 102.969 10.7765 102.717 10.5485L102.348 10.1975H102.285L101.97 10.5485C101.778 10.7585 101.637 10.9355 101.547 11.0795C101.457 11.2235 101.412 11.3765 101.412 11.5385C101.412 11.7485 101.493 11.9285 101.655 12.0785C101.823 12.2285 102.042 12.3035 102.312 12.3035H102.492ZM102.987 8.45147C102.849 8.45147 102.738 8.40947 102.654 8.32547C102.576 8.24147 102.537 8.11247 102.537 7.93847C102.537 7.75847 102.576 7.62947 102.654 7.55147C102.738 7.46747 102.849 7.42547 102.987 7.42547H103.122C103.26 7.42547 103.371 7.46747 103.455 7.55147C103.539 7.62947 103.581 7.75847 103.581 7.93847C103.581 8.11247 103.539 8.24147 103.455 8.32547C103.371 8.40947 103.26 8.45147 103.122 8.45147H102.987ZM101.718 8.45147C101.58 8.45147 101.469 8.40947 101.385 8.32547C101.307 8.24147 101.268 8.11247 101.268 7.93847C101.268 7.75847 101.307 7.62947 101.385 7.55147C101.469 7.46747 101.58 7.42547 101.718 7.42547H101.853C101.991 7.42547 102.102 7.46747 102.186 7.55147C102.27 7.62947 102.312 7.75847 102.312 7.93847C102.312 8.11247 102.27 8.24147 102.186 8.32547C102.102 8.40947 101.991 8.45147 101.853 8.45147H101.718ZM105.697 13.2305C105.391 13.2305 105.151 13.1495 104.977 12.9875C104.803 12.8255 104.716 12.5735 104.716 12.2315V11.5745H105.517V12.2135H106.741C107.059 12.2135 107.278 12.1865 107.398 12.1325C107.518 12.0785 107.578 11.9765 107.578 11.8265C107.578 11.7605 107.563 11.6795 107.533 11.5835C107.503 11.4815 107.461 11.3525 107.407 11.1965L106.57 8.86547L107.425 8.55947L108.343 11.1065C108.421 11.3285 108.493 11.5115 108.559 11.6555C108.631 11.7935 108.703 11.9045 108.775 11.9885C108.847 12.0725 108.922 12.1325 109 12.1685C109.084 12.1985 109.18 12.2135 109.288 12.2135H109.531V13.0145L109.306 13.2305C109.108 13.2305 108.934 13.2155 108.784 13.1855C108.634 13.1495 108.499 13.0955 108.379 13.0235C108.265 12.9455 108.16 12.8435 108.064 12.7175C107.974 12.5915 107.884 12.4325 107.794 12.2405L107.749 12.2495C107.695 12.6035 107.575 12.8555 107.389 13.0055C107.203 13.1555 106.918 13.2305 106.534 13.2305H105.697ZM110.552 12.7175C110.414 12.9035 110.249 13.0355 110.057 13.1135C109.865 13.1915 109.619 13.2305 109.319 13.2305V12.4295L109.535 12.2135C109.763 12.2135 109.928 12.1655 110.03 12.0695C110.138 11.9675 110.237 11.7965 110.327 11.5565L110.579 10.9085C110.723 10.5365 110.912 10.2395 111.146 10.0175C111.386 9.78947 111.707 9.67547 112.109 9.67547C112.601 9.67547 112.979 9.88547 113.243 10.3055C113.507 10.7195 113.639 11.3015 113.639 12.0515V12.4025L112.964 13.3925L110.552 12.7175ZM110.975 11.7725L112.865 12.3035V12.0515C112.865 11.6255 112.784 11.2925 112.622 11.0525C112.46 10.8125 112.235 10.6925 111.947 10.6925C111.737 10.6925 111.566 10.7555 111.434 10.8815C111.308 11.0015 111.203 11.1695 111.119 11.3855L110.975 11.7725Z" fill="#2A4365"/>
<path d="M128 3.23047C124.134 3.23047 121 6.36484 121 10.2305C121 14.0961 124.134 17.2305 128 17.2305C131.866 17.2305 135 14.0961 135 10.2305C135 6.36484 131.866 3.23047 128 3.23047ZM128 16.043C124.791 16.043 122.188 13.4398 122.188 10.2305C122.188 7.02109 124.791 4.41797 128 4.41797C131.209 4.41797 133.812 7.02109 133.812 10.2305C133.812 13.4398 131.209 16.043 128 16.043Z" fill="black"/>
<path d="M127.25 12.9805C127.25 13.1794 127.329 13.3701 127.47 13.5108C127.61 13.6515 127.801 13.7305 128 13.7305C128.199 13.7305 128.39 13.6515 128.53 13.5108C128.671 13.3701 128.75 13.1794 128.75 12.9805C128.75 12.7816 128.671 12.5908 128.53 12.4501C128.39 12.3095 128.199 12.2305 128 12.2305C127.801 12.2305 127.61 12.3095 127.47 12.4501C127.329 12.5908 127.25 12.7816 127.25 12.9805ZM127.625 11.2305H128.375C128.444 11.2305 128.5 11.1742 128.5 11.1055V6.85547C128.5 6.78672 128.444 6.73047 128.375 6.73047H127.625C127.556 6.73047 127.5 6.78672 127.5 6.85547V11.1055C127.5 11.1742 127.556 11.2305 127.625 11.2305Z" fill="black"/>
</svg>
